<svg xmlns="http://www.w3.org/2000/svg" class="bi bi-arrow-right-square-fill" viewBox="0 0 16 16" id="Arrow-Right-Square-Fill--Streamline-Bootstrap" height="16" width="16"><desc>Arrow Right Square Fill Streamline Icon: https://streamlinehq.com</desc><path d="M0 14a2 2 0 0 0 2 2h12a2 2 0 0 0 2 -2V2a2 2 0 0 0 -2 -2H2a2 2 0 0 0 -2 2zm4.5 -6.5h5.793L8.146 5.354a0.5 0.5 0 1 1 0.708 -0.708l3 3a0.5 0.5 0 0 1 0 0.708l-3 3a0.5 0.5 0 0 1 -0.708 -0.708L10.293 8.5H4.5a0.5 0.5 0 0 1 0 -1" stroke-width="1"></path></svg>