<svg xmlns="http://www.w3.org/2000/svg" class="bi bi-arrow-left-square-fill" viewBox="0 0 16 16" id="Arrow-Left-Square-Fill--Streamline-Bootstrap" height="16" width="16"><desc>Arrow Left Square Fill Streamline Icon: https://streamlinehq.com</desc><path d="M16 14a2 2 0 0 1 -2 2H2a2 2 0 0 1 -2 -2V2a2 2 0 0 1 2 -2h12a2 2 0 0 1 2 2zm-4.5 -6.5H5.707l2.147 -2.146a0.5 0.5 0 1 0 -0.708 -0.708l-3 3a0.5 0.5 0 0 0 0 0.708l3 3a0.5 0.5 0 0 0 0.708 -0.708L5.707 8.5H11.5a0.5 0.5 0 0 0 0 -1" stroke-width="1"></path></svg>