<svg preserveAspectRatio="none" id="svg" viewBox="0 0 1440 590" xmlns="http://www.w3.org/2000/svg" class="transition duration-300 ease-in-out delay-150"><defs><linearGradient id="gradient" x1="94%" y1="26%" x2="6%" y2="74%"><stop offset="5%" stop-color="#48a9fe"></stop><stop offset="95%" stop-color="#a7c7e7"></stop></linearGradient></defs><path d="M 0,600 L 0,150 C 84.03827751196172,196.05741626794259 168.07655502392345,242.11483253588517 268,219 C 367.92344497607655,195.88516746411483 483.73205741626793,103.59808612440192 583,103 C 682.2679425837321,102.40191387559808 764.9952153110047,193.49282296650716 849,216 C 933.0047846889953,238.50717703349284 1018.2870813397128,192.4306220095694 1117,170 C 1215.7129186602872,147.5693779904306 1327.8564593301435,148.7846889952153 1440,150 L 1440,600 L 0,600 Z" stroke="none" stroke-width="0" fill="url(#gradient)" fill-opacity="0.53" class="transition-all duration-300 ease-in-out delay-150 path-0" transform="rotate(-180 720 300)"></path><defs><linearGradient id="gradient" x1="94%" y1="26%" x2="6%" y2="74%"><stop offset="5%" stop-color="#48a9fe"></stop><stop offset="95%" stop-color="#a7c7e7"></stop></linearGradient></defs><path d="M 0,600 L 0,350 C 68.19138755980862,362.63157894736844 136.38277511961724,375.2631578947368 237,358 C 337.61722488038276,340.7368421052632 470.6602870813397,293.5789473684211 573,306 C 675.3397129186603,318.4210526315789 746.9760765550241,390.42105263157896 827,390 C 907.0239234449759,389.57894736842104 995.4354066985645,316.7368421052631 1099,298 C 1202.5645933014355,279.2631578947369 1321.2822966507179,314.63157894736844 1440,350 L 1440,600 L 0,600 Z" stroke="none" stroke-width="0" fill="url(#gradient)" fill-opacity="1" class="transition-all duration-300 ease-in-out delay-150 path-1" transform="rotate(-180 720 300)"></path></svg>