<svg xmlns="http://www.w3.org/2000/svg" viewBox="0 0 48 48" id="Heart-Circle--Streamline-Ionic-Filled" height="48" width="48"><desc>Heart Circle Streamline Icon: https://streamlinehq.com</desc><path d="M23.9999 0.48C11.0312 0.48 0.48 11.0312 0.48 23.9999 0.48 36.9688 11.0312 47.52 23.9999 47.52c12.9689 0 23.5201 -10.5512 23.5201 -23.5201C47.52 11.0312 36.9688 0.48 23.9999 0.48Zm8.4458 28.588c-1.0606 1.2936 -2.9852 3.3619 -7.4292 6.3787 -0.2996 0.2053 -0.6545 0.3151 -1.0176 0.3151 -0.3632 0 -0.7181 -0.1098 -1.0177 -0.3151 -4.444 -3.0168 -6.3686 -5.0884 -7.4291 -6.3787 -2.2616 -2.7556 -3.3449 -5.5859 -3.3133 -8.6503 0.0351 -3.5122 2.8519 -6.3696 6.2792 -6.3696 2.3068 0 3.9577 1.2019 4.9867 2.3079 0.0634 0.067 0.1399 0.1205 0.2246 0.157 0.0848 0.0364 0.1762 0.0554 0.2685 0.0554 0.0922 0 0.1835 -0.019 0.2683 -0.0554 0.0847 -0.0365 0.1612 -0.09 0.2246 -0.157 1.0302 -1.106 2.68 -2.3079 4.9867 -2.3079 3.4274 0 6.2441 2.8574 6.2792 6.3696 0.0339 3.0644 -1.0505 5.8947 -3.3109 8.6503Z" stroke-width="1"></path></svg>