<?xml version="1.0" encoding="UTF-8" standalone="no"?>
<!DOCTYPE svg PUBLIC "-//W3C//DTD SVG 1.1//EN" "http://www.w3.org/Graphics/SVG/1.1/DTD/svg11.dtd">
<svg xmlns="http://www.w3.org/2000/svg" version="1.1" viewBox="110 390 830 240">
<path d="
  M 224.24 393.10
  Q 224.14 393.19 221.06 394.29
  Q 219.31 394.90 211.33 397.02
  Q 207.22 398.11 201.83 400.38
  Q 177.28 410.74 156.94 428.85
  C 155.11 430.47 151.47 434.29 149.83 436.08
  Q 120.88 467.74 113.44 509.98
  Q 113.01 512.43 112.26 514.14
  A 0.27 0.27 0.0 0 1 111.77 514.14
  Q 111.15 512.72 111.13 512.01
  Q 110.90 501.53 111.20 493.27
  Q 111.36 488.89 113.45 479.36
  Q 114.85 472.98 117.78 465.93
  C 132.97 429.26 166.04 400.08 206.05 394.10
  Q 214.70 392.80 219.74 392.12
  Q 221.52 391.89 224.10 392.55
  A 0.33 0.32 -59.7 0 1 224.24 393.10
  Z"
/>
<path d="
  M 315.30 432.89
  C 329.15 448.25 337.40 466.01 338.68 486.81
  A 0.34 0.33 26.5 0 1 338.07 487.01
  Q 337.34 485.90 337.21 485.54
  C 330.50 467.75 321.22 452.54 308.79 438.75
  C 296.36 424.97 282.19 414.17 265.18 405.67
  Q 264.84 405.50 263.81 404.66
  A 0.34 0.33 69.4 0 1 264.08 404.07
  C 284.63 407.49 301.44 417.53 315.30 432.89
  Z"
/>
<path d="
  M 213.78 433.26
  Q 212.81 434.27 211.30 435.05
  C 206.89 437.31 201.55 439.52 197.35 442.24
  C 174.89 456.80 158.72 477.89 152.30 504.06
  C 151.95 505.50 151.95 506.96 151.32 507.85
  A 0.64 0.63 -28.9 0 1 150.17 507.52
  Q 148.92 486.75 158.18 469.04
  C 160.44 464.69 164.89 459.02 167.78 455.78
  Q 181.83 440.02 201.76 435.09
  Q 206.84 433.83 213.55 432.82
  A 0.26 0.26 0.0 0 1 213.78 433.26
  Z"
/>
<path d="
  M 290.04 458.65
  C 300.35 470.27 305.55 484.58 305.69 500.04
  A 0.49 0.48 -77.5 0 1 305.00 500.48
  Q 304.60 500.29 304.44 499.85
  C 299.13 485.77 292.94 475.07 283.51 464.45
  C 274.08 453.82 264.20 446.41 250.84 439.47
  Q 250.42 439.26 250.28 438.84
  A 0.49 0.48 -5.7 0 1 250.80 438.21
  C 266.13 440.17 279.73 447.04 290.04 458.65
  Z"
/>
<rect x="-9.94" y="-51.50" transform="translate(397.89,502.40) rotate(-0.1)" width="19.88" height="103.00" rx="0.27"/>
<rect x="726.19" y="450.92" width="19.74" height="103.00" rx="0.69"/>
<circle cx="228.56" cy="509.64" r="44.85"/>
<path d="
  M 822.24 499.57
  A 0.57 0.56 1.3 0 1 821.75 500.03
  L 806.03 501.89
  A 1.11 1.11 0.0 0 1 804.84 501.14
  Q 802.87 495.30 797.52 493.34
  C 790.88 490.91 782.76 491.01 777.52 495.98
  Q 776.49 496.95 776.84 499.80
  A 2.31 2.26 28.0 0 0 777.11 500.65
  Q 779.53 504.91 785.85 506.16
  Q 790.54 507.09 803.56 509.69
  Q 806.34 510.25 811.22 512.15
  C 816.62 514.25 820.44 518.27 822.48 523.40
  A 4.51 4.23 30.6 0 1 822.73 524.26
  C 823.33 527.72 824.01 530.01 823.87 532.57
  Q 823.52 539.29 820.10 544.09
  C 812.05 555.41 796.15 557.80 782.98 555.95
  C 774.11 554.71 766.27 551.19 760.87 544.08
  C 758.58 541.06 757.30 537.11 755.90 533.23
  A 0.92 0.92 0.0 0 1 756.61 532.01
  L 773.66 528.91
  A 0.67 0.66 -12.6 0 1 774.41 529.38
  Q 776.99 538.78 786.16 540.49
  C 789.82 541.18 794.28 541.46 798.05 540.28
  C 803.43 538.61 806.91 534.44 802.97 529.13
  A 2.39 2.36 -5.1 0 0 802.12 528.43
  Q 797.95 526.37 796.62 526.11
  C 787.56 524.34 778.56 522.98 770.18 519.05
  Q 765.15 516.70 761.92 512.54
  Q 758.83 508.57 758.38 502.76
  C 757.24 488.31 768.42 479.06 781.75 477.29
  Q 788.43 476.40 797.69 477.30
  C 809.08 478.41 819.54 485.85 822.11 497.33
  Q 822.40 498.61 822.24 499.57
  Z"
/>
<path d="
  M 517.12 477.67
  Q 517.44 478.10 517.75 478.16
  C 526.78 479.69 534.35 488.02 536.40 496.58
  A 4.33 4.23 -50.1 0 1 536.50 497.88
  Q 536.36 499.67 536.79 501.05
  A 3.85 3.73 37.3 0 1 536.96 502.17
  L 536.96 552.72
  A 0.66 0.64 -3.0 0 1 536.37 553.36
  Q 528.22 554.16 519.24 553.53
  A 0.95 0.95 0.0 0 1 518.36 552.57
  C 518.61 535.37 518.92 523.23 518.24 510.02
  Q 518.03 505.98 517.23 503.06
  Q 516.69 501.08 514.44 498.72
  Q 510.81 494.89 505.51 494.40
  C 500.19 493.90 495.77 496.33 492.82 500.62
  C 490.80 503.55 490.11 508.76 490.13 512.63
  Q 490.22 528.62 489.64 552.16
  A 1.43 1.42 88.9 0 1 488.32 553.54
  Q 480.47 554.04 472.76 553.68
  Q 470.38 553.57 470.38 550.82
  Q 470.35 532.11 470.54 514.31
  C 470.57 511.44 470.13 508.67 470.03 505.81
  C 469.86 501.23 466.50 496.80 462.62 495.37
  C 454.56 492.40 446.50 495.67 443.57 503.64
  Q 441.87 508.28 441.94 512.50
  C 442.03 517.59 441.51 522.38 441.63 526.50
  Q 441.99 538.88 441.97 553.32
  A 0.56 0.56 0.0 0 1 441.41 553.88
  L 422.60 553.88
  A 0.67 0.66 90.0 0 1 421.94 553.21
  L 422.78 479.34
  A 0.78 0.77 -89.6 0 1 423.55 478.57
  L 441.38 478.57
  A 0.50 0.50 0.0 0 1 441.88 479.06
  L 442.03 486.60
  A 0.45 0.45 0.0 0 0 442.88 486.80
  Q 442.88 486.79 443.07 486.24
  A 2.37 2.23 -15.5 0 1 443.58 485.40
  Q 450.33 478.16 460.61 477.16
  Q 466.85 476.55 471.13 477.43
  Q 479.87 479.22 484.94 485.71
  Q 486.82 488.11 486.96 488.27
  A 0.51 0.51 0.0 0 0 487.75 488.23
  C 494.72 478.36 504.87 476.05 516.45 477.29
  A 0.94 0.94 0.0 0 1 517.12 477.67
  Z"
/>
<path d="
  M 551.00 478.36
  L 569.44 478.36
  A 0.61 0.61 0.0 0 1 570.05 478.98
  L 569.96 487.22
  A 0.53 0.53 0.0 0 0 570.92 487.54
  C 577.62 478.17 588.50 475.95 599.56 477.32
  C 613.89 479.09 625.59 490.72 628.83 504.83
  C 632.66 521.46 627.70 541.88 612.70 551.65
  Q 610.96 552.79 603.28 555.49
  Q 600.54 556.46 595.79 556.45
  C 587.52 556.45 580.64 555.59 574.03 550.13
  C 572.59 548.94 571.84 547.64 570.92 546.58
  A 0.52 0.52 0.0 0 0 570.01 546.92
  L 570.01 581.55
  A 0.96 0.96 0.0 0 1 569.04 582.51
  L 550.74 582.30
  A 0.40 0.40 0.0 0 1 550.34 581.90
  L 550.34 479.01
  A 0.66 0.65 0.0 0 1 551.00 478.36
  Z
  M 569.79 515.30
  Q 569.44 520.02 569.92 522.48
  C 572.02 533.42 580.38 540.65 591.75 539.54
  C 603.38 538.40 609.21 529.04 610.00 518.24
  C 610.79 507.44 606.38 497.33 595.04 494.52
  C 583.95 491.76 574.63 497.70 570.96 508.22
  Q 570.13 510.58 569.79 515.30
  Z"
/>
<path d="
  M 852.20 526.82
  Q 855.90 536.64 864.42 539.61
  Q 875.94 543.63 885.31 534.94
  A 0.87 0.86 -7.5 0 0 885.49 534.71
  L 888.25 529.59
  A 1.22 1.21 -70.6 0 1 889.54 528.97
  L 905.23 531.90
  A 0.99 0.99 0.0 0 1 905.92 533.34
  Q 902.53 539.73 900.65 542.37
  C 896.64 547.97 890.26 552.36 883.36 554.60
  Q 871.50 558.45 859.00 555.02
  Q 849.35 552.36 842.40 545.03
  C 833.80 535.96 831.46 525.25 832.04 512.98
  Q 832.42 504.90 835.94 497.70
  C 840.80 487.77 849.81 479.83 860.82 477.76
  Q 866.82 476.64 872.81 476.90
  C 896.11 477.93 910.01 498.25 907.71 520.32
  A 0.71 0.70 -87.3 0 1 907.01 520.96
  L 851.63 520.96
  A 0.61 0.60 3.8 0 0 851.03 521.48
  Q 850.67 524.10 852.02 526.45
  A 2.89 1.66 -86.1 0 1 852.20 526.82
  Z
  M 870.29 507.95
  Q 871.60 507.94 888.15 508.13
  A 0.76 0.75 83.6 0 0 888.89 507.20
  Q 885.36 492.74 870.25 492.14
  Q 870.24 492.14 870.12 492.14
  Q 870.00 492.14 869.99 492.14
  Q 854.90 493.07 851.69 507.61
  A 0.76 0.75 -84.9 0 0 852.45 508.53
  Q 868.99 507.97 870.29 507.95
  Z"
/>
<path d="
  M 644.29 542.20
  C 642.19 539.62 641.15 532.91 641.14 531.78
  Q 640.87 508.87 641.03 479.08
  A 0.76 0.75 -89.2 0 1 641.79 478.33
  Q 652.13 478.43 658.96 478.30
  Q 660.59 478.28 660.60 478.90
  C 660.61 479.73 660.33 480.36 660.33 481.40
  Q 660.30 518.98 660.46 524.98
  Q 660.67 532.95 666.40 536.82
  Q 670.03 539.29 675.38 539.27
  Q 680.25 539.26 684.46 537.05
  C 691.27 533.49 692.56 527.08 692.48 519.77
  Q 692.33 506.18 692.37 478.67
  A 0.31 0.31 0.0 0 1 692.68 478.36
  L 711.64 478.36
  A 0.68 0.67 90.0 0 1 712.31 479.04
  L 712.31 553.25
  A 0.35 0.35 0.0 0 1 711.96 553.60
  L 693.26 553.39
  A 0.70 0.70 0.0 0 1 692.57 552.69
  L 692.57 545.95
  A 0.39 0.38 68.1 0 0 691.92 545.67
  Q 690.85 546.71 689.13 548.81
  Q 688.45 549.64 685.00 552.12
  Q 683.11 553.47 680.33 554.53
  C 668.28 559.12 650.06 556.19 644.64 542.81
  A 2.44 2.41 15.5 0 0 644.29 542.20
  Z"
/>
<path d="
  M 234.69 626.10
  A 0.27 0.27 0.0 0 1 234.72 625.59
  Q 235.94 625.28 244.19 623.14
  Q 257.31 619.74 269.60 612.88
  Q 302.20 594.69 321.97 563.76
  Q 337.46 539.52 343.95 510.49
  A 6.44 6.21 -38.7 0 0 344.10 509.32
  Q 344.16 506.83 344.81 504.83
  A 0.48 0.48 0.0 0 1 345.74 504.95
  C 346.52 519.41 345.16 533.27 340.81 546.86
  Q 329.05 583.57 297.24 607.24
  Q 281.56 618.90 262.65 623.84
  Q 252.98 626.36 241.06 626.66
  C 238.77 626.72 236.86 626.95 234.69 626.10
  Z"
/>
<path d="
  M 287.18 567.37
  C 274.83 580.36 259.69 587.91 241.74 589.72
  Q 239.26 589.97 237.19 589.43
  A 0.46 0.46 0.0 0 1 237.16 588.55
  Q 258.06 581.26 274.46 566.19
  Q 278.90 562.12 280.20 560.74
  Q 281.51 559.36 285.36 554.72
  Q 299.58 537.59 305.80 516.34
  A 0.46 0.46 0.0 0 1 306.68 516.33
  Q 307.32 518.37 307.19 520.86
  C 306.30 538.88 299.53 554.38 287.18 567.37
  Z"
/>
<path d="
  M 210.03 583.98
  Q 210.02 583.98 209.25 583.89
  C 202.53 583.03 193.79 581.29 187.28 578.02
  Q 166.20 567.44 157.25 545.30
  Q 155.70 541.46 153.31 530.00
  C 153.02 528.59 153.26 527.28 153.79 526.11
  A 0.37 0.37 0.0 0 1 154.47 526.13
  Q 162.75 546.49 178.40 562.11
  Q 186.75 570.44 197.37 576.82
  C 201.30 579.18 206.74 580.79 210.15 583.13
  A 0.48 0.48 0.0 0 1 210.03 583.98
  Z"
/>
<path d="
  M 123.63 545.53
  Q 124.87 546.68 125.85 548.69
  Q 131.08 559.38 138.93 569.59
  C 151.44 585.85 166.21 599.66 183.97 609.59
  C 187.93 611.80 192.83 613.23 196.44 615.88
  A 0.21 0.20 66.1 0 1 196.30 616.25
  Q 177.84 614.16 162.54 603.99
  Q 144.12 591.75 132.76 572.24
  Q 125.72 560.15 122.99 545.88
  A 0.38 0.38 0.0 0 1 123.63 545.53
  Z"
/>
</svg>
