<?xml version="1.0" encoding="UTF-8" standalone="no"?>
<!DOCTYPE svg PUBLIC "-//W3C//DTD SVG 1.1//EN" "http://www.w3.org/Graphics/SVG/1.1/DTD/svg11.dtd">
<svg xmlns="http://www.w3.org/2000/svg" version="1.1" viewBox="0.00 0.00 244.00 244.00">
<path fill="#ffffff" d="
  M 116.97 5.08
  Q 114.97 6.13 114.08 6.36
  Q 101.49 9.74 99.49 10.51
  Q 81.14 17.58 64.65 29.12
  Q 48.33 40.55 35.94 56.11
  Q 14.16 83.45 7.02 118.74
  Q 5.54 126.07 5.46 126.16
  A 0.45 0.44 52.9 0 1 4.75 126.06
  Q 4.15 124.95 4.15 124.74
  Q 3.89 110.38 4.14 105.29
  Q 4.24 103.18 5.37 96.53
  C 8.03 80.80 15.50 65.41 25.52 51.85
  Q 45.92 24.24 77.57 11.67
  C 88.80 7.21 100.32 5.67 112.75 4.16
  Q 115.16 3.86 116.95 4.62
  A 0.25 0.25 0.0 0 1 116.97 5.08
  Z"
/>
<path fill="#ffffff" d="
  M 208.34 44.94
  C 222.22 60.35 230.32 77.91 231.72 98.85
  A 0.35 0.34 25.6 0 1 231.09 99.07
  Q 230.40 98.10 230.20 97.54
  C 223.53 79.80 214.25 64.58 201.83 50.80
  C 189.42 37.02 175.25 26.20 158.29 17.72
  Q 157.76 17.46 156.86 16.68
  A 0.35 0.34 70.4 0 1 157.15 16.08
  C 177.83 19.64 194.46 29.53 208.34 44.94
  Z"
/>
<path fill="#ffffff" d="
  M 106.75 45.29
  Q 105.86 46.21 104.46 46.94
  C 99.92 49.33 94.59 51.48 90.29 54.27
  C 67.96 68.76 51.84 89.74 45.38 115.74
  C 44.98 117.37 44.98 118.89 44.29 119.89
  A 0.61 0.60 60.6 0 1 43.19 119.58
  Q 41.90 98.71 51.23 80.94
  C 53.42 76.76 57.93 70.97 60.54 68.03
  Q 73.94 52.95 92.61 47.62
  Q 96.60 46.48 106.50 44.83
  A 0.28 0.27 16.7 0 1 106.75 45.29
  Z"
/>
<path fill="#ffffff" d="
  M 183.06 70.67
  C 192.67 81.51 197.65 94.20 198.59 108.98
  C 198.65 110.02 199.00 111.37 198.60 112.20
  A 0.61 0.61 0.0 0 1 197.48 112.14
  C 192.95 98.92 186.02 87.17 176.53 76.47
  C 167.03 65.76 156.20 57.48 143.61 51.41
  A 0.61 0.61 0.0 0 1 143.68 50.28
  C 144.56 49.99 145.85 50.50 146.88 50.68
  C 161.44 53.37 173.45 59.84 183.06 70.67
  Z"
/>
<circle fill="#ffffff" cx="121.56" cy="121.64" r="44.85"/>
<path fill="#ffffff" d="
  M 127.64 238.07
  A 0.25 0.25 0.0 0 1 127.67 237.60
  Q 128.04 237.50 136.99 235.19
  Q 151.56 231.43 165.32 223.36
  Q 198.88 203.66 218.30 170.32
  Q 231.08 148.38 236.62 123.88
  Q 237.15 121.53 237.56 117.12
  A 0.56 0.55 31.0 0 1 238.58 116.87
  Q 238.92 117.38 238.87 118.25
  Q 238.87 118.27 238.90 119.44
  Q 239.93 151.86 225.64 178.45
  C 211.24 205.24 186.56 227.33 157.02 235.48
  Q 146.63 238.35 134.07 238.66
  C 131.78 238.72 129.82 238.97 127.64 238.07
  Z"
/>
<path fill="#ffffff" d="
  M 180.16 179.39
  C 167.81 192.37 152.35 200.11 134.50 201.74
  Q 132.17 201.96 130.16 201.45
  A 0.46 0.45 -47.3 0 1 130.13 200.58
  Q 151.52 193.02 167.99 177.72
  Q 172.18 173.82 173.19 172.76
  Q 174.20 171.70 177.88 167.32
  Q 192.34 150.10 198.82 128.36
  A 0.46 0.45 -45.6 0 1 199.69 128.35
  Q 200.30 130.33 200.20 132.67
  C 199.46 150.58 192.50 166.41 180.16 179.39
  Z"
/>
<path fill="#ffffff" d="
  M 46.81 138.09
  A 0.37 0.37 0.0 0 1 47.49 138.12
  Q 58.80 166.00 83.07 184.04
  Q 91.74 190.49 101.17 193.89
  Q 102.65 194.42 103.23 195.43
  A 0.32 0.32 0.0 0 1 102.91 195.91
  Q 90.06 194.00 85.81 192.37
  Q 63.40 183.74 52.49 162.35
  C 49.36 156.19 47.29 147.95 46.27 141.74
  Q 45.95 139.76 46.81 138.09
  Z"
/>
<path fill="#ffffff" d="
  M 16.61 157.39
  Q 17.68 158.42 18.56 160.20
  Q 25.12 173.36 34.23 184.52
  Q 39.91 191.49 43.85 195.64
  Q 58.88 211.52 77.26 221.76
  Q 79.09 222.78 86.70 226.14
  Q 88.07 226.75 89.56 228.01
  A 0.19 0.19 0.0 0 1 89.41 228.35
  Q 73.64 226.12 62.10 219.91
  Q 48.46 212.57 37.45 200.36
  Q 21.44 182.60 16.22 159.53
  Q 16.19 159.42 16.17 157.58
  A 0.26 0.26 0.0 0 1 16.61 157.39
  Z"
/>
</svg>
